<svg width="57" height="103" viewBox="0 0 57 103" fill="none" xmlns="http://www.w3.org/2000/svg">
<mask id="mask0_54_322" style="mask-type:luminance" maskUnits="userSpaceOnUse" x="0" y="63" width="57" height="40">
<path d="M0 63.2926H56.6976V103H0V63.2926Z" fill="white"/>
</mask>
<g mask="url(#mask0_54_322)">
<path d="M6.02239 63.9847L0.0447998 82.3798L8.72184 88.6825L13.8344 63.9847H6.02239ZM23.973 63.9847L20.3698 97.1448L28.2981 102.908L36.2295 97.1448L32.6262 63.9847H23.973ZM50.5769 63.9847H42.7648L47.8774 88.6825L56.5545 82.3798L50.5769 63.9847ZM34.2459 63.9847L37.7358 96.0531L46.4457 89.7236L41.1183 63.9847H34.2459ZM15.4809 63.9847L10.1536 89.7236L18.8635 96.0531L22.3504 63.9847H15.4809Z" fill="black"/>
</g>
<mask id="mask1_54_322" style="mask-type:luminance" maskUnits="userSpaceOnUse" x="3" y="0" width="51" height="62">
<path d="M3.48389 0H53.1181V61.0018H3.48389V0Z" fill="white"/>
</mask>
<g mask="url(#mask1_54_322)">
<path d="M47.3076 54.8184C47.3076 56.3963 46.0279 57.6759 44.45 57.6759H37.1302C35.5523 57.6759 34.2726 56.3963 34.2726 54.8184C34.2726 53.2405 35.5523 51.9608 37.1302 51.9608H44.45C46.0279 51.9608 47.3076 53.2405 47.3076 54.8184ZM27.8208 16.507C19.7403 16.507 13.193 23.0573 13.193 31.1347C13.193 39.2152 19.7403 45.7625 27.8208 45.7625C28.8439 45.7625 29.8461 45.6581 30.8096 45.4583C29.3062 45.9594 27.7015 46.2308 26.0281 46.2308C17.6911 46.2308 10.932 39.4717 10.932 31.1347C10.932 22.7977 17.6911 16.0387 26.0281 16.0387C27.7015 16.0387 29.3062 16.3131 30.8096 16.8142C29.8461 16.6114 28.8439 16.507 27.8208 16.507ZM28.4233 37.6761C28.8827 37.6761 29.3301 37.6284 29.7626 37.5389C29.0885 37.7656 28.3696 37.8849 27.6239 37.8849C23.8954 37.8849 20.8708 34.8633 20.8708 31.1347C20.8708 27.4062 23.8954 24.3846 27.6239 24.3846C28.3696 24.3846 29.0885 24.5039 29.7626 24.7306C29.3301 24.6411 28.8827 24.5934 28.4233 24.5934C24.8111 24.5934 21.882 27.5225 21.882 31.1347C21.882 34.7499 24.8111 37.6761 28.4233 37.6761ZM22.3264 54.8184C22.3264 56.3963 21.0468 57.6759 19.4688 57.6759H12.146C10.5711 57.6759 9.29144 56.3963 9.29144 54.8184C9.29144 53.2405 10.5711 51.9608 12.146 51.9608H19.4688C21.0468 51.9608 22.3264 53.2405 22.3264 54.8184ZM51.6386 48.4918C49.7893 46.6425 46.8393 45.2077 43.2808 44.1876C46.3262 40.6947 48.1696 36.131 48.1696 31.1347C48.1696 23.1318 43.4388 16.2355 36.6201 13.0886L37.0586 10.2579C37.2465 9.03797 38.2935 8.14013 39.5284 8.14013C40.9064 8.14013 42.025 7.02157 42.025 5.64053V2.49961C42.025 1.11856 40.9064 0 39.5284 0H17.0707C15.6896 0 14.571 1.11856 14.571 2.49961V5.64053C14.571 7.02157 15.6896 8.14013 17.0707 8.14013C18.3026 8.14013 19.3525 9.03797 19.5404 10.2579L19.9789 13.0886C13.1602 16.2355 8.42941 23.1318 8.42941 31.1347C8.42941 36.131 10.2728 40.6947 13.3183 44.1876C9.75975 45.2077 6.80973 46.6425 4.96038 48.4918C2.83661 50.6156 4.96038 60.5007 4.96038 60.5007H51.6386C51.6386 60.5007 53.7624 50.6156 51.6386 48.4918Z" fill="black"/>
</g>
</svg>
