<svg width="1219" height="37" viewBox="0 0 1219 37" fill="none" xmlns="http://www.w3.org/2000/svg">
<path d="M13.756 0H14.7493C18.1975 0.075763 21.5896 1.47738 24.0258 3.95862C23.1263 4.88671 22.208 5.77693 21.3272 6.70503C19.9591 5.45494 18.31 4.48896 16.5109 4.14802C13.8498 3.5798 10.9825 4.0912 8.75235 5.6254C6.31608 7.23537 4.66692 9.96284 4.31085 12.8797C3.9173 15.7587 4.72314 18.7892 6.57845 21.0242C8.35879 23.2024 11.0762 24.5662 13.8872 24.6609C16.5109 24.8124 19.247 23.9979 21.1585 22.1417C22.6578 20.8348 23.3512 18.846 23.5761 16.9141C20.4651 16.9141 17.3542 16.933 14.2433 16.9141V13.0123H27.3429C28.0175 17.1982 27.043 21.9144 23.8946 24.9071C21.7957 27.0285 18.8909 28.2785 15.9299 28.5248C13.0627 28.8089 10.1017 28.2596 7.55295 26.858C4.49826 25.2101 2.062 22.4258 0.862607 19.1491C-0.261821 16.1375 -0.280562 12.7282 0.768905 9.69767C1.72467 6.93231 3.56123 4.48896 5.92253 2.78429C8.19013 1.09856 10.945 0.170467 13.756 0Z" fill="#323840"/>
<path d="M88.9058 0.984985H92.9162V28.0323C91.5856 28.0323 90.2363 28.0513 88.9058 28.0134C88.9245 19.0165 88.9058 10.0008 88.9058 0.984985Z" fill="#323840"/>
<path d="M36.2628 10.3608C38.7366 9.88725 41.4165 10.4176 43.4592 11.9139C45.3145 13.2397 46.6076 15.3232 47.0011 17.5961C47.5071 20.2288 46.87 23.1078 45.1833 25.1913C43.3655 27.521 40.3857 28.771 37.481 28.5816C34.8198 28.4301 32.2336 27.0853 30.6594 24.8882C28.8791 22.4638 28.4481 19.1303 29.4226 16.2892C30.3971 13.2397 33.1519 10.91 36.2628 10.3608ZM36.8251 13.9595C35.8131 14.2246 34.876 14.8118 34.2014 15.6452C32.3836 17.8423 32.496 21.4221 34.5012 23.4677C35.6444 24.642 37.3685 25.1913 38.9615 24.8693C40.442 24.6041 41.7351 23.6003 42.4472 22.2744C43.6841 20.0205 43.328 16.9142 41.4352 15.1527C40.2171 14.0163 38.4367 13.5428 36.8251 13.9595Z" fill="#323840"/>
<path d="M56.1262 10.3606C58.956 9.81129 62.0482 10.6068 64.1659 12.6145C67.6141 15.7398 67.9889 21.5925 65.0467 25.1912C63.2663 27.4641 60.3803 28.7142 57.5317 28.5816C54.8144 28.5058 52.1345 27.1421 50.5228 24.8882C48.705 22.4069 48.3114 18.9976 49.3422 16.0996C50.3729 13.1449 53.0715 10.8909 56.1262 10.3606ZM56.6884 13.9593C55.6764 14.2245 54.7394 14.8117 54.0648 15.6261C52.2657 17.7854 52.3406 21.3083 54.2709 23.3729C55.4141 24.604 57.1944 25.2102 58.8436 24.8692C60.3053 24.5851 61.6172 23.6002 62.3293 22.2743C63.5474 20.0014 63.1914 16.8951 61.2798 15.1337C60.0617 13.9972 58.2814 13.5426 56.6884 13.9593Z" fill="#323840"/>
<path d="M72.976 11.4592C75.1312 10.0955 77.9985 9.71669 80.3223 10.891C81.0532 11.213 81.6529 11.7623 82.2338 12.3116C82.2526 11.8002 82.2338 11.2698 82.2526 10.7395C83.5082 10.7584 84.7638 10.7395 86.0382 10.7584V27.4641C86.0194 29.9833 85.3823 32.6539 83.5832 34.4911C81.6154 36.5178 78.5982 37.1428 75.8808 36.7261C72.976 36.2905 70.4461 34.1502 69.3216 31.4417C70.4461 30.8924 71.6267 30.4568 72.7886 29.9454C73.4446 31.4985 74.7751 32.8244 76.443 33.1274C78.1109 33.4305 80.0412 33.0138 81.1282 31.6122C82.2901 30.1727 82.2901 28.2028 82.2338 26.4413C81.3718 27.2937 80.3785 28.0513 79.1791 28.3354C76.5742 29.0741 73.7069 28.1649 71.7017 26.3845C69.6777 24.6041 68.4783 21.8577 68.5908 19.1302C68.647 16.0429 70.3711 13.0692 72.976 11.4592ZM76.8553 13.8836C75.7122 14.0731 74.6439 14.717 73.9131 15.6073C72.1515 17.7286 72.1515 21.119 73.9318 23.2025C74.9438 24.4336 76.5742 25.1155 78.1484 24.945C79.6289 24.7935 80.997 23.8465 81.7279 22.5396C82.9647 20.3235 82.7586 17.3119 81.0907 15.38C80.06 14.1867 78.4108 13.5995 76.8553 13.8836Z" fill="#323840"/>
<path d="M97.7295 12.4252C99.9784 10.3038 103.445 9.58409 106.331 10.7016C109.068 11.7433 110.81 14.3761 111.691 17.0846C107.624 18.7893 103.577 20.475 99.5099 22.1797C100.072 23.2593 100.934 24.2442 102.096 24.642C103.726 25.2291 105.675 25.0208 107.044 23.9222C107.587 23.5055 108.018 22.9562 108.43 22.4259C109.461 23.1267 110.492 23.8086 111.522 24.5094C110.061 26.7255 107.606 28.2786 104.963 28.5248C102.04 28.8847 98.9289 27.7483 97.0361 25.4375C93.9252 21.8009 94.225 15.7019 97.7295 12.4252ZM99.7347 15.9292C99.0976 16.8573 98.8352 17.9938 98.8539 19.1113C101.571 17.9748 104.289 16.8384 107.006 15.683C106.556 14.6223 105.469 13.9783 104.364 13.8079C102.583 13.4859 100.728 14.4519 99.7347 15.9292Z" fill="#323840"/>
<path d="M212.352 31.3836H207.201V18.4042H203.691V14.1783H207.2V11.1714C207.2 7.60806 208.752 5.05249 213.89 5.05249C214.977 5.05249 216.683 5.27385 216.683 5.27385V9.19778H214.891C213.065 9.19778 212.352 9.75905 212.352 11.3108V14.1783H216.614L216.235 18.4042H212.352L212.352 31.3836ZM224.172 13.8406C224.097 13.8406 224.02 13.8434 223.944 13.8453C219.167 13.8453 216.981 17.4769 216.981 22.632C216.981 29.126 219.816 31.7251 223.981 31.7251C226.364 31.7251 227.929 30.7114 228.881 28.8198V31.3854H233.781V14.1801H228.881V16.8261C228.104 15.1237 226.495 13.8608 224.172 13.8406ZM225.418 17.9062C227.425 17.9062 228.629 19.3206 228.629 21.7264L228.633 24.1836C228.633 25.805 227.639 27.7021 225.418 27.7021C222.005 27.7021 222.096 23.9766 222.096 22.7357C222.096 18.5618 223.915 17.9062 225.418 17.9062ZM235.76 22.7837C235.76 20.6929 235.661 13.8518 244.479 13.8518C248.019 13.8518 249.497 14.9894 249.497 14.9894L248.309 18.7137C248.309 18.7137 246.833 17.8921 244.91 17.8921C242.446 17.8921 240.874 19.3356 240.874 21.8755L240.876 23.6966C240.876 26.1371 242.393 27.7662 244.915 27.7662C246.667 27.7662 248.282 26.9369 248.282 26.9369L249.467 30.5833C249.467 30.5833 248.116 31.7281 244.504 31.7281C236.107 31.7281 235.76 25.5903 235.76 22.7837H235.76ZM278.227 13.8453C283.004 13.8453 285.224 17.4769 285.224 22.632C285.224 29.126 282.389 31.7251 278.224 31.7251C275.842 31.7251 274.08 30.7116 273.129 28.8198V31.3854L268.29 31.3835V5.57563L273.427 5.12282V16.593C274.169 14.5862 276.605 13.8453 278.227 13.8453H278.227ZM276.787 17.9062C274.781 17.9062 273.427 19.3206 273.427 21.7264L273.422 24.1836C273.419 25.805 274.36 27.7021 276.787 27.7021C280.201 27.7021 280.11 23.9766 280.11 22.7357C280.11 18.5618 278.291 17.9062 276.787 17.9062ZM258.41 13.8596C252.992 13.8596 250.132 16.8451 250.132 22.1508V23.1366C250.132 30.0229 254.149 31.7958 258.938 31.7958C263.593 31.7958 265.699 30.48 265.699 30.48L264.738 26.9758C264.738 26.9758 262.26 28.0416 259.554 28.0416C256.748 28.0416 255.542 27.3189 255.233 24.5941H266.11V21.7829C266.11 16.0276 262.9 13.8594 258.41 13.8594L258.41 13.8596ZM258.541 17.3684C260.416 17.3684 261.632 18.5308 261.565 21.2264H255.242C255.352 18.3893 256.662 17.3686 258.541 17.3686V17.3684ZM295.467 13.8359C289.903 13.8359 286.974 17.0049 286.974 22.6838C286.974 30.4755 292.023 31.7298 295.476 31.7298C300.531 31.7298 303.895 28.9791 303.895 22.7545C303.895 16.2759 300.113 13.8359 295.467 13.8359ZM295.397 17.9203C297.843 17.9203 298.813 19.7709 298.813 21.8774V23.6885C298.813 26.2403 297.456 27.7163 295.388 27.7163C293.453 27.7163 292.093 26.3356 292.093 23.6885V21.8774C292.093 19.0542 293.711 17.9203 295.397 17.9203ZM314.128 13.8359C308.564 13.8359 305.635 17.0049 305.635 22.6838C305.635 30.4755 310.684 31.7298 314.138 31.7298C319.193 31.7298 322.556 28.9791 322.556 22.7545C322.556 16.2759 318.774 13.8359 314.128 13.8359ZM314.058 17.9203C316.505 17.9203 317.474 19.7709 317.474 21.8774V23.6885C317.474 26.2403 316.118 27.7163 314.049 27.7163C312.114 27.7163 310.754 26.3356 310.754 23.6885V21.8774C310.754 19.0542 312.372 17.9203 314.058 17.9203ZM324.497 31.3836V5.57563L329.649 5.12282V22.421L334.76 14.1783H340.201L334.869 22.7153L340.406 31.3836H334.95L329.649 22.9668V31.3836H324.497Z" fill="#323840"/>
<path d="M453.402 32.4437L445.152 32.2912C442.481 32.2381 439.804 32.3442 437.185 31.7937C433.202 30.9712 432.919 26.9385 432.624 23.5558C432.217 18.8001 432.375 13.9582 433.143 9.24235C433.576 6.59588 435.282 5.01729 437.92 4.84483C446.826 4.22135 455.79 4.29432 464.676 4.58616C465.615 4.61269 466.56 4.75861 467.485 4.92443C472.053 5.73362 472.164 10.3036 472.46 14.1506C472.755 18.0374 472.63 21.9441 472.066 25.8043C471.613 29.0013 470.747 31.681 467.091 31.9396C462.511 32.2779 458.035 32.5498 453.441 32.4636C453.441 32.4437 453.415 32.4437 453.402 32.4437ZM448.552 24.3518C452.004 22.3487 455.39 20.3787 458.822 18.3889C455.364 16.3858 451.984 14.4159 448.552 12.4261V24.3518Z" fill="#323840"/>
<path d="M538.627 28.8091C538.47 29.4591 538.332 29.9698 538.194 30.5137H534.965V5.34216H538.732V14.6281C538.929 14.3761 539.027 14.2699 539.113 14.1572C539.756 13.2617 540.589 12.6781 541.666 12.4525C543.378 12.1143 544.842 12.877 545.36 14.5419C545.695 15.5766 545.912 16.6843 545.938 17.7654C545.99 20.5446 545.951 23.3171 545.853 26.0963C545.813 26.9453 545.557 27.8141 545.236 28.6101C544.179 31.2367 540.727 31.6347 539.014 29.3596C538.909 29.2203 538.811 29.0678 538.627 28.8091ZM538.811 21.8844V26.4876C538.811 27.2371 539.205 27.6948 539.946 27.8672C540.675 28.0397 541.265 27.7545 541.561 27.0713C541.685 26.7861 541.81 26.4876 541.817 26.1891C541.889 23.3768 541.954 20.5645 541.974 17.7455C541.974 17.2215 541.849 16.6776 541.692 16.1669C541.397 15.245 540.583 14.973 539.782 15.5103C539.178 15.9215 538.811 16.5052 538.811 17.2812V21.8844ZM528.573 12.8107H532.517V30.527H529.439C529.328 29.8571 529.216 29.1672 529.085 28.358C528.875 28.6698 528.75 28.8688 528.619 29.0678C527.595 30.5601 526.145 31.0709 524.432 30.7989C522.969 30.5601 522.089 29.4193 521.892 27.5488C521.833 26.9917 521.807 26.4279 521.807 25.8707C521.794 21.7252 521.807 17.5664 521.807 13.4209V12.7975H525.797V13.5204C525.797 17.5267 525.784 21.5262 525.81 25.5325C525.81 26.1029 525.869 26.6932 525.968 27.2636C526.079 27.8473 526.499 28.0596 527.064 28.0198C527.976 27.9468 528.606 27.2636 528.606 26.3483V13.5934C528.573 13.3347 528.573 13.0959 528.573 12.8107ZM501.417 12.7975H505.381V13.547C505.381 17.5333 505.368 21.513 505.394 25.486C505.394 26.0565 505.446 26.6468 505.564 27.2039C505.715 27.8606 506.096 28.0728 506.746 27.9866C507.645 27.8606 508.189 27.2305 508.196 26.3085V13.6199V12.824H512.14V30.527H509.075C508.964 29.8703 508.852 29.1938 508.708 28.3381C508.511 28.6366 508.399 28.8091 508.288 28.9882C507.264 30.5071 505.827 31.0642 504.075 30.7923C502.67 30.58 501.811 29.5321 501.548 27.8141C501.476 27.2769 501.423 26.7463 501.423 26.209C501.41 21.9043 501.41 17.5797 501.41 13.275L501.417 12.7975ZM499.382 22.2558C499.369 22.8528 499.33 23.4498 499.297 24.0467C499.146 25.8376 499.074 28.3779 497.643 29.6846C496.731 30.5071 495.576 30.8056 494.382 30.8454C493.85 30.8586 493.312 30.8586 492.78 30.7857C490.267 30.4009 489.099 29.28 488.679 26.4876C488.2 23.264 488.16 19.9874 488.731 16.7639C489.322 13.4276 491.356 12.2469 494.519 12.4658C497.473 12.6781 498.792 14.6347 499.14 17.4205C499.33 19.019 499.422 20.6374 499.382 22.2558ZM495.366 21.6456C495.366 20.5114 495.392 19.3706 495.353 18.2364C495.327 17.5797 495.241 16.9164 495.104 16.2664C494.946 15.5169 494.474 15.1587 493.883 15.172C493.305 15.1853 492.898 15.5434 492.688 16.2399C492.616 16.4986 492.538 16.7639 492.538 17.0226C492.538 18.8002 492.524 20.5844 492.511 22.362C492.498 24.0202 492.288 25.758 492.807 27.3432C492.964 27.8274 493.371 28.0927 493.903 28.0927C494.421 28.0927 494.762 27.834 494.953 27.3698C495.104 27.0116 495.235 26.6202 495.235 26.2355C495.281 24.71 495.366 23.1778 495.366 21.6456ZM482.89 18.3093C483.238 16.5914 483.566 14.9133 483.927 13.2286C484.38 11.0862 484.885 8.94378 485.332 6.79475C485.443 6.27076 485.653 6.14473 486.145 6.158C487.202 6.1978 488.278 6.17127 489.407 6.17127C489.04 7.53763 488.679 8.83766 488.324 10.1178C487.202 14.1373 486.08 18.17 484.971 22.2028C484.885 22.5145 484.846 22.8528 484.846 23.1844C484.833 25.3865 484.846 27.582 484.846 29.7841V30.5004H480.994C480.981 30.3015 480.954 30.1025 480.954 29.9035C480.954 28.6565 480.856 27.4029 480.968 26.1692C481.25 23.2043 480.318 20.4783 479.563 17.719C478.566 14.071 477.555 10.4096 476.557 6.76159C476.505 6.58913 476.485 6.40341 476.433 6.19116H480.364C481.191 10.2173 482.024 14.2434 482.89 18.3093ZM558.263 22.9324H551.621C551.693 24.2789 551.72 25.559 551.857 26.8259C551.956 27.708 552.435 28.0861 553.19 28.0927C553.977 28.106 554.437 27.708 554.62 26.8325C554.679 26.5473 554.719 26.2621 554.745 25.9702C554.771 25.7115 554.784 25.433 554.804 25.0615C555.926 25.1212 557.022 25.1876 558.105 25.234C558.735 27.1243 557.6 29.5519 555.69 30.3015C554.187 30.8984 552.645 30.8984 551.109 30.4407C549.974 30.1025 549.127 29.3729 548.747 28.2519C548.392 27.2039 548.058 26.1095 547.985 25.0151C547.789 22.3155 547.716 19.5895 548.123 16.8833C548.195 16.4322 548.32 16.0011 548.458 15.5633C549.009 13.7592 550.21 12.6515 552.067 12.4658C553.078 12.3663 554.122 12.4061 555.119 12.5786C556.734 12.8638 557.593 14.0378 557.967 15.5766C558.138 16.2996 558.263 17.0425 558.289 17.7787C558.295 19.4701 558.263 21.1482 558.263 22.9324ZM554.489 20.6043C554.489 19.2711 554.502 18.0175 554.476 16.7572C554.476 16.4588 554.364 16.147 554.253 15.8618C554.03 15.3047 553.564 15.1521 553.006 15.1521C552.448 15.1521 552.094 15.4373 551.956 15.948C551.536 17.4802 551.674 19.0456 551.687 20.6175C552.691 20.6043 553.603 20.6043 554.489 20.6043Z" fill="#323840"/>
<path d="M515.185 9.42163H511.28V6.22461H522.935V9.40173H519.057V30.5008H515.191L515.185 9.42163Z" fill="#323840"/>
<path d="M665.454 1.38376C663.627 1.59065 660.888 2.45003 659.329 3.30942C655.14 5.5852 652.306 9.13414 650.889 13.8607C650.605 14.7838 650.275 17.2983 650.29 18.476C650.29 19.5104 650.605 22.0408 650.794 22.6456C650.889 22.932 651.093 23.6164 651.267 24.1415C651.55 25.0327 652.92 27.8337 653.156 28.0247C653.203 28.0724 653.455 28.3907 653.692 28.7567C654.274 29.632 655.802 31.1917 656.951 32.0829C657.833 32.7672 660.321 34.2154 660.636 34.2313C660.714 34.2313 660.73 33.6266 660.683 32.8309C660.573 31.0644 660.903 28.6613 661.612 26.2104C661.738 25.7966 661.832 25.2556 661.832 25.0168C661.832 24.7781 661.895 24.5235 661.974 24.4439C662.053 24.3484 662.195 23.8869 662.273 23.4095C662.368 22.932 662.525 22.2 662.635 21.7862C662.793 21.1655 662.777 20.9268 662.557 20.2584C662.242 19.2399 662.226 17.5847 662.541 16.789C663.281 14.8952 664.1 14.179 665.486 14.179C667.155 14.179 667.958 15.4522 667.643 17.5847C667.501 18.5555 667.107 20.0833 666.855 20.5608C666.792 20.704 666.682 21.1019 666.635 21.4361C666.572 21.7862 666.446 22.2795 666.367 22.5501C666.147 23.1708 666.572 24.3803 667.139 24.8418C667.674 25.2715 668.792 25.3988 669.816 25.1601C670.54 25.0009 670.839 24.8099 671.595 24.0779C672.493 23.1867 673.17 22.1522 673.17 21.6589C673.17 21.5156 673.249 21.3247 673.343 21.2292C673.784 20.7836 674.02 17.3142 673.689 15.8501C673.327 14.2427 672.209 12.6672 670.761 11.7441C669.312 10.8052 666.32 10.5346 664.478 11.1712C663.187 11.6168 662.037 12.3648 661.297 13.2401C660.636 14.0199 659.943 15.2931 659.943 15.7387C659.943 15.8978 659.864 16.1047 659.77 16.2002C659.675 16.2957 659.565 16.9004 659.518 17.5529C659.439 18.5237 659.502 18.9693 659.785 19.9242C659.974 20.5767 660.321 21.3406 660.525 21.627C660.951 22.2 660.951 22.4228 660.557 23.9506C660.447 24.3643 660.258 24.7463 660.148 24.794C659.156 25.176 657.14 22.7729 656.463 20.3857C656.211 19.4786 656.195 16.2479 656.447 15.2931C656.557 14.8952 656.746 14.3541 656.872 14.0676C656.998 13.7971 657.109 13.5265 657.109 13.4629C657.109 13.3992 657.423 12.8581 657.817 12.2693C659.864 9.15005 663.187 7.49494 667.391 7.49494C668.351 7.49494 669.343 7.5586 669.611 7.63817C671.784 8.32249 672.367 8.5453 673.217 9.05456C674.87 10.0572 676.067 11.4258 677.264 13.7175C677.343 13.8607 677.453 14.2427 677.5 14.561C677.563 14.8793 677.673 15.1817 677.752 15.2294C677.831 15.2771 677.894 16.3116 677.894 17.537C677.894 19.7491 677.736 20.6403 677.075 22.4546C676.335 24.4439 674.429 26.6401 672.697 27.4995C671.705 27.9769 669.847 28.5021 669.107 28.5021C668.115 28.5021 666.163 27.6746 665.627 27.0062C665.375 26.7038 665.139 26.8152 665.139 27.2449C665.139 27.404 665.076 27.6746 664.982 27.8337C664.903 27.9769 664.761 28.4225 664.682 28.8204C664.226 30.9211 663.58 32.624 662.588 34.2154C662.289 34.7088 662.541 34.9952 663.36 35.1066C663.769 35.1703 664.32 35.2817 664.572 35.3613C665.202 35.5682 668.619 35.5363 669.769 35.3294C670.808 35.1385 672.493 34.661 673.249 34.3427C678.004 32.3693 681.61 28.3589 683.169 23.2503C684.003 20.5289 684.05 17.3619 683.295 14.179C683.043 13.1446 682.964 12.9059 682.287 11.3144C681.311 8.9909 679.106 6.26952 676.87 4.59849C674.949 3.16619 673.06 2.33863 670.115 1.62248C669.296 1.4315 666.383 1.27236 665.454 1.38376ZM707.45 7.1289C706.835 7.22439 705.859 8.24292 705.607 9.03865C705.34 9.91395 705.607 10.8529 706.363 11.585C708.032 13.2242 710.929 11.6805 710.567 9.32511C710.347 7.82914 708.993 6.87427 707.45 7.1289ZM690.286 8.06786C690.144 8.22701 690.144 27.4199 690.302 27.6427C690.381 27.77 691.058 27.8178 692.38 27.8019L694.349 27.786L694.427 24.5553C694.49 21.9294 694.553 21.2928 694.742 21.1814C694.868 21.1019 695.939 21.0223 697.12 21.0223C699.702 21.0223 700.789 20.8313 701.97 20.1947C703.513 19.3513 704.411 18.1418 704.899 16.2161C705.198 15.0066 705.198 14.1313 704.883 12.89C704.599 11.7759 704.473 11.5054 703.796 10.5983C702.962 9.46834 702.112 8.84767 700.726 8.35432C699.954 8.09969 699.309 8.05195 695.136 8.0042C692.538 7.97238 690.349 8.0042 690.286 8.06786ZM698.931 12.0306C699.986 12.3648 700.505 12.8422 700.742 13.7016C701.041 14.8315 700.82 15.8819 700.159 16.5185C699.435 17.2028 698.789 17.3619 696.679 17.3619C695.293 17.3619 694.868 17.3142 694.679 17.1073C694.475 16.9163 694.427 16.4548 694.427 14.6406C694.427 11.7759 694.412 11.7919 696.6 11.7919C697.545 11.7919 698.458 11.8873 698.931 12.0306ZM726.55 11.0916C726.55 12.1897 726.471 13.2242 726.392 13.3992C726.282 13.6061 726.062 13.7016 725.684 13.7016C725.4 13.7016 725.133 13.7653 725.101 13.8607C725.085 13.9403 725.085 14.4973 725.133 15.0862C725.211 16.1365 725.227 16.1524 725.7 16.2638C725.967 16.3116 726.266 16.4071 726.361 16.4707C726.503 16.5503 726.55 17.8076 726.55 20.9905C726.55 25.2715 726.566 25.4306 726.912 26.0672C727.636 27.4199 728.77 27.8974 731.069 27.8337L732.612 27.786L732.659 26.2423L732.707 24.6826H732.313C731.715 24.6826 730.833 24.2052 730.738 23.8232C730.691 23.6323 730.644 21.9453 730.644 20.0515C730.644 17.4415 730.691 16.5662 730.849 16.4389C730.959 16.3434 731.4 16.2479 731.825 16.2161L732.612 16.1684V13.7812L731.746 13.7334C731.274 13.7016 730.833 13.5902 730.77 13.4947C730.707 13.3833 730.644 12.3489 730.644 11.1871V9.08639H726.55V11.0916ZM785.079 9.18188C785.016 9.24554 784.969 10.2482 784.969 11.4099C784.969 13.6698 784.953 13.7016 784.087 13.7016C783.693 13.7016 783.693 13.7175 783.741 14.927C783.788 16.1365 783.804 16.1684 784.213 16.2161C784.433 16.2479 784.701 16.3593 784.78 16.4548C784.874 16.5662 784.969 18.4919 785.016 20.9427C785.063 23.2981 785.142 25.4465 785.205 25.7012C785.394 26.4014 786.37 27.2926 787.299 27.595C788.339 27.9451 790.984 27.9769 791.252 27.6427C791.378 27.4995 791.425 26.9266 791.393 26.099L791.346 24.7622L790.795 24.6667C790.197 24.5712 789.519 24.2529 789.346 23.9824C789.283 23.8869 789.22 22.1522 789.22 20.1311C789.22 15.9774 789.126 16.2479 790.496 16.2479C791.393 16.2479 791.472 16.0888 791.393 14.6406L791.346 13.7812L790.323 13.7016L789.299 13.622L789.22 11.394L789.142 9.16596L787.158 9.11822C786.071 9.10231 785.142 9.13414 785.079 9.18188ZM718.755 13.3197C717.984 13.5265 717.086 14.0517 716.488 14.6724C715.764 15.4363 715.575 15.3885 715.496 14.4178L715.449 13.7812H711.512V27.786L713.496 27.8178C715.449 27.8655 715.496 27.8496 715.59 27.4995C715.638 27.3085 715.685 25.2874 715.685 22.9957C715.685 18.46 715.701 18.3327 716.63 17.4415C717.039 17.0437 717.26 16.9641 718.141 16.9163L719.165 16.8527L719.779 17.5052C720.503 18.2691 720.425 17.537 720.488 24.1256C720.503 25.8762 720.519 27.4199 720.535 27.5791C720.566 27.8019 720.818 27.8337 722.582 27.8019L724.582 27.786V16.614L724.125 15.7068C723.338 14.1313 722.125 13.3833 720.267 13.2878C719.606 13.2719 718.929 13.2719 718.755 13.3197ZM738.438 13.3197C736.738 13.7812 735.919 14.2427 734.864 15.2931C733.447 16.7413 732.801 18.4282 732.801 20.704C732.817 24.6985 735.289 27.6586 738.942 28.0088C742.06 28.3111 744.469 27.3881 746.012 25.3033C746.233 25.0009 746.705 24.0301 746.705 23.8551C746.705 23.7914 745.792 23.7278 744.69 23.7278H742.674L742.202 24.2211C741.651 24.794 740.879 25.1601 740.17 25.1601C739.462 25.1601 738.375 24.6508 737.871 24.1097C737.494 23.68 736.942 22.4387 736.942 22.009C736.942 21.8658 738.092 21.818 741.792 21.818C744.453 21.818 746.705 21.7544 746.815 21.6907C747.052 21.5316 746.831 19.0011 746.485 18.0781C745.776 16.1524 744.438 14.5292 743.084 13.9562C742.69 13.7971 742.233 13.5902 742.076 13.5106C741.745 13.3356 738.942 13.1923 738.438 13.3197ZM741.509 16.8049C742.123 17.2346 742.658 18.2532 742.58 18.8261C742.532 19.1921 742.501 19.1921 739.84 19.2399C736.769 19.2876 736.753 19.2717 737.242 18.1258C737.588 17.3301 738.281 16.614 738.926 16.4071C739.667 16.1684 740.863 16.3593 741.509 16.8049ZM761.743 13.3197C759.916 13.813 758.641 14.6246 757.649 15.8819C757.255 16.3912 756.94 16.8686 756.94 16.9641C756.94 17.0437 756.83 17.3301 756.688 17.6007C756.547 17.8553 756.342 18.651 756.232 19.3672C755.681 22.7729 757.192 25.9558 760.027 27.3881L761.113 27.9451H763.396C765.758 27.9451 765.963 27.8974 767.412 27.1176C768.467 26.5446 770.199 24.3166 769.931 23.871C769.868 23.7914 768.971 23.7278 767.916 23.7278H765.979L765.585 24.1893C764.01 25.9876 761.066 25.0646 760.436 22.566C760.342 22.2318 760.341 21.9453 760.42 21.8817C760.499 21.8339 762.751 21.8021 765.443 21.818C769.285 21.818 770.325 21.7862 770.34 21.627C770.482 19.6377 769.537 16.6935 768.356 15.4204C767.695 14.7042 766.546 13.9085 765.979 13.7653C765.727 13.7016 765.443 13.5902 765.333 13.5106C765.113 13.3356 762.231 13.1923 761.743 13.3197ZM764.199 16.423C764.908 16.6776 765.727 17.5688 765.853 18.2532C766.042 19.2876 766.057 19.2876 763.129 19.2399C760.499 19.1921 760.483 19.1921 760.436 18.8261C760.373 18.3805 760.924 17.2824 761.397 16.8686C762.074 16.2957 763.255 16.1047 764.199 16.423ZM775.442 13.3197C772.214 14.0995 771.049 15.2612 771.033 17.6802C771.033 20.2902 772.324 21.3883 776.151 22.0726C778.78 22.5342 779.536 22.9479 779.505 23.9506C779.489 24.6667 779.001 25.1282 778.025 25.3351C776.796 25.6057 775.836 25.3033 775.064 24.428L774.45 23.7278H772.545C771.002 23.7278 770.64 23.7755 770.64 23.9506C770.64 24.4121 771.269 25.6216 771.789 26.2263C772.277 26.7515 772.655 27.0062 774.135 27.7223C774.277 27.8019 775.049 27.9292 775.82 28.0247C777.253 28.1997 779.741 28.0406 780.371 27.7223C780.513 27.6586 780.922 27.4518 781.268 27.2926C782.166 26.8629 783.016 25.8921 783.331 24.9691C783.678 23.9187 783.583 22.4546 783.095 21.4361C782.512 20.2425 780.969 19.3831 778.67 18.9693C775.71 18.4441 775.663 18.4282 775.19 17.9667C774.623 17.3779 774.623 17.171 775.19 16.5344C775.647 16.0251 775.678 16.0092 776.938 16.0092C778.198 16.0092 778.229 16.0251 778.686 16.5344C778.938 16.8209 779.143 17.1551 779.143 17.2824C779.143 17.4733 779.473 17.5211 781.111 17.5211C783.284 17.5211 783.221 17.5688 782.843 16.4389C782.15 14.4337 780.371 13.4151 777.411 13.3037C776.497 13.2719 775.615 13.2719 775.442 13.3197ZM754.5 13.6539C753.807 13.8926 752.846 14.6883 752.547 15.2612C752.248 15.8342 751.98 15.5954 751.901 14.6406L751.823 13.7812H747.886L747.839 20.4653C747.823 24.1415 747.839 27.3085 747.886 27.5154C747.965 27.8655 748.012 27.8655 749.902 27.8337C750.988 27.8178 751.87 27.7223 751.933 27.6268C751.996 27.5472 752.059 25.8603 752.059 23.8869C752.059 20.7677 752.09 20.2106 752.358 19.5104C752.909 18.0622 754.09 17.2028 755.57 17.2028C755.98 17.2028 756.153 17.1232 756.2 16.9163C756.31 16.4548 756.326 14.3064 756.232 13.8289C756.137 13.447 756.059 13.3833 755.633 13.3992C755.35 13.4151 754.846 13.5265 754.5 13.6539ZM706.001 13.8926C705.954 14.004 705.938 17.1391 705.954 20.8631L706.001 27.6268L707.875 27.7064C709.008 27.7541 709.827 27.7223 709.953 27.6268C710.126 27.4995 710.174 26.1468 710.174 20.7358C710.189 17.0437 710.142 13.9403 710.095 13.8607C709.937 13.622 706.08 13.6539 706.001 13.8926Z" fill="#323840"/>
<path d="M987.026 7.01769H982.273V0.363892H971.837L967.038 7.01769H958.509L955.658 9.86932V7.01769H949.004V0.363892H928.092V7.01769H898.673L893.872 0.363892H883.417V23.1769L896.724 36.4845H910.032V32.6823L913.834 36.4845H939.499V32.6823L943.301 36.4845H955.658V32.6823L959.46 36.4845H983.223L991.778 27.9296V11.7704L987.026 7.01769ZM899.576 16.5231H892.922V18.4242H899.576V26.0285H889.12L885.318 22.2264V2.26498H892.922V8.91877H899.576V16.5231ZM928.092 26.0285H905.279L901.477 22.2264V8.91877H909.081V18.4242H910.982V8.91877H918.587V18.4242H920.488V8.91877H928.092V26.0285ZM937.597 26.0285H929.993V8.91877H937.597V26.0285ZM937.597 7.01769H929.993V2.26498H937.597V7.01769ZM953.757 16.5231H947.103V18.4242H953.757V26.0285H943.301L939.499 22.2264V2.26498H947.103V8.91877H953.757V16.5231ZM970.866 16.5231H963.262V18.4242H970.866V26.0285H959.46L955.658 22.2264V12.7209L959.46 8.91877H970.866V16.5231ZM989.877 26.0285H982.273V16.5231H980.372V26.0285H972.768V2.26498H980.372V8.91877H986.075L989.877 12.7209V26.0285Z" fill="#323840"/>
<path d="M1127.32 14.7288C1127.32 12.3096 1124.97 9.74033 1120.9 9.74033C1116.33 9.74033 1111.31 13.0938 1110.54 19.7839C1109.75 26.5408 1113.96 29.5439 1118.2 29.5439C1122.43 29.5439 1124.65 27.8922 1126.92 25.6899C1124.97 23.2374 1122.45 24.3719 1121.97 24.6222C1121.43 24.8891 1120.75 25.2562 1119.35 25.2562C1117.71 25.2562 1116.04 24.5221 1116.04 21.469C1126.52 20.4346 1127.32 17.1479 1127.32 14.7288ZM1122.13 15.1292C1122.07 15.8799 1121.77 17.1646 1116.46 17.882C1117.58 13.9113 1119.72 13.6109 1120.7 13.6109C1121.62 13.6109 1122.2 14.3283 1122.13 15.1292ZM1104.38 15.7798C1104.38 15.7798 1102.13 22.8537 1101.95 23.4376C1101.88 22.837 1100.23 10.1407 1100.23 10.1407C1096.39 10.1407 1094.34 12.8769 1093.25 15.7631C1093.25 15.7631 1090.52 22.8537 1090.28 23.4543C1090.27 22.9038 1089.87 15.8466 1089.87 15.8466C1089.63 12.3096 1086.4 10.1574 1083.78 10.1574L1086.95 29.3937C1090.97 29.377 1093.14 26.6576 1094.27 23.7713C1094.27 23.7713 1096.69 17.5149 1096.79 17.2313C1096.81 17.4983 1098.53 29.3937 1098.53 29.3937C1102.56 29.3937 1104.73 26.8411 1105.9 24.0549L1111.56 10.1574C1107.57 10.1574 1105.47 12.8769 1104.38 15.7798ZM1142.14 9.70696C1139.65 9.70696 1137.75 11.0583 1136.15 13.0437V13.027L1137.58 1.46521C1134.28 1.46521 1131.59 4.33481 1131.08 8.60584L1128.57 29.2436C1130.48 29.2436 1132.49 28.693 1133.58 27.2916C1134.55 28.5429 1136 29.5439 1138.15 29.5439C1143.72 29.5439 1147.54 23.0706 1147.54 16.9977C1147.51 11.4587 1144.82 9.70696 1142.14 9.70696ZM1141.62 19.6338C1141.04 23.0206 1139.15 25.3229 1137.33 25.3229C1135.5 25.3229 1134.71 24.5054 1134.71 24.5054C1135.06 21.5357 1135.28 19.7172 1135.95 18.1489C1136.62 16.5806 1138.2 14.0781 1139.85 14.0781C1141.47 14.0781 1142.2 16.2303 1141.62 19.6338ZM1161.46 10.1574H1157.57L1157.59 9.95722C1157.85 7.42129 1158.45 6.0866 1160.44 5.86971C1161.79 5.73624 1162.39 5.03552 1162.54 4.26807C1162.66 3.66746 1163.03 1.582 1163.03 1.582C1155.22 1.53194 1152.77 4.90205 1152.13 10.0406L1152.11 10.1574H1152.03C1150.76 10.1574 1149.36 11.5922 1149.13 13.4107L1149.04 14.0781H1151.65L1149.46 32.1299L1148.79 35.3665C1148.88 35.3665 1148.98 35.3832 1149.06 35.3832C1152.72 35.2497 1155.05 32.3634 1155.57 28.1758L1157.27 14.0781H1158.49C1159.69 14.0781 1161.09 12.8769 1161.34 10.8748L1161.46 10.1574ZM1181.68 9.82375C1177.19 9.82375 1172.95 13.1271 1171.65 18.3158C1170.35 23.5044 1172.32 29.644 1178.93 29.644C1185.52 29.644 1189.32 23.2541 1189.32 17.932C1189.32 12.6433 1185.73 9.82375 1181.68 9.82375ZM1183.5 19.4669C1183.26 21.8193 1182.23 25.3896 1179.39 25.3896C1176.54 25.3896 1176.94 21.2187 1177.22 19.2334C1177.52 17.1145 1178.71 14.0948 1181.26 14.0948C1183.55 14.0948 1183.76 16.8142 1183.5 19.4669ZM1211.49 15.7798C1211.49 15.7798 1209.24 22.8537 1209.06 23.4376C1208.99 22.837 1207.34 10.1407 1207.34 10.1407C1203.5 10.1407 1201.45 12.8769 1200.36 15.7631C1200.36 15.7631 1197.63 22.8537 1197.39 23.4543C1197.38 22.9038 1196.98 15.8466 1196.98 15.8466C1196.74 12.3096 1193.51 10.1574 1190.89 10.1574L1194.04 29.3937C1198.06 29.377 1200.23 26.6576 1201.37 23.7713C1201.37 23.7713 1203.78 17.5149 1203.87 17.2313C1203.9 17.4983 1205.6 29.3937 1205.6 29.3937C1209.64 29.3937 1211.81 26.8411 1212.98 24.0549L1218.63 10.1574C1214.66 10.1574 1212.56 12.8769 1211.49 15.7798ZM1165.13 1.582L1161.86 27.9589L1161.19 31.2123C1161.27 31.2123 1161.37 31.2289 1161.46 31.2289C1164.98 31.1789 1167.48 28.0924 1167.95 24.2051L1169.83 9.07298C1170.4 4.45159 1167.65 1.582 1165.13 1.582Z" fill="#323840"/>
</svg>
