<svg width="244" height="37" viewBox="0 0 244 37" fill="none" xmlns="http://www.w3.org/2000/svg">
<rect y="0.349365" width="36" height="36" rx="8" fill="#D9CFCC"/>
<path d="M19.4638 27.3494V19.1387H22.3585L22.7919 15.9389H19.4637V13.8959C19.4637 12.9695 19.7339 12.3382 21.1293 12.3382L22.909 12.3374V9.47544C22.6012 9.43651 21.5447 9.34937 20.3157 9.34937C17.7497 9.34937 15.9929 10.8405 15.9929 13.5791V15.9389H13.0908V19.1387H15.9929V27.3493H19.4638V27.3494Z" fill="#323840"/>
<rect x="52" y="0.349365" width="36" height="36" rx="8" fill="#D9CFCC"/>
<path d="M73.0271 11.0506V11.0474H73.8711L74.1794 11.109C74.385 11.1489 74.5717 11.2013 74.7394 11.2662C74.9071 11.331 75.0694 11.4067 75.2263 11.4931C75.3832 11.5795 75.5255 11.6676 75.6532 11.7573C75.7798 11.8459 75.8934 11.9399 75.9941 12.0393C76.0936 12.1398 76.2489 12.1657 76.4599 12.1171C76.6709 12.0685 76.8981 12.001 77.1416 11.9145C77.385 11.8281 77.6258 11.7308 77.8638 11.6228C78.1019 11.5147 78.2469 11.4461 78.2988 11.4169C78.3497 11.3867 78.3768 11.3705 78.38 11.3683L78.3832 11.3634L78.3995 11.3553L78.4157 11.3472L78.4319 11.3391L78.4482 11.331L78.4514 11.3261L78.4563 11.3229L78.4612 11.3197L78.4644 11.3148L78.4806 11.3099L78.4968 11.3067L78.4936 11.331L78.4887 11.3553L78.4806 11.3796L78.4725 11.4039L78.4644 11.4202L78.4563 11.4364L78.4482 11.4607C78.4427 11.4769 78.4373 11.4985 78.4319 11.5255C78.4265 11.5525 78.3751 11.6606 78.2777 11.8497C78.1803 12.0388 78.0586 12.2306 77.9125 12.4251C77.7665 12.6196 77.6355 12.7665 77.5198 12.8659C77.4029 12.9664 77.3255 13.0367 77.2876 13.0767C77.2498 13.1177 77.2038 13.1555 77.1497 13.1901L77.0685 13.2436L77.0523 13.2517L77.0361 13.2598L77.0328 13.2647L77.028 13.2679L77.0231 13.2712L77.0198 13.276L77.0036 13.2841L76.9874 13.2922L76.9841 13.2971L76.9793 13.3003L76.9744 13.3036L76.9711 13.3084L76.9679 13.3133L76.963 13.3165L76.9582 13.3198L76.9549 13.3246H77.0361L77.4905 13.2274C77.7935 13.1626 78.083 13.0842 78.3589 12.9924L78.7971 12.8465L78.8458 12.8303L78.8702 12.8222L78.8864 12.8141L78.9026 12.806L78.9188 12.7979L78.9351 12.7898L78.9675 12.7849L79 12.7817V12.8141L78.9919 12.8173L78.9838 12.8222L78.9805 12.827L78.9757 12.8303L78.9708 12.8335L78.9675 12.8384L78.9643 12.8433L78.9594 12.8465L78.9546 12.8497L78.9513 12.8546L78.9481 12.8595L78.9432 12.8627L78.9351 12.8789L78.927 12.8951L78.9221 12.8984C78.9199 12.9016 78.8512 12.9934 78.716 13.1739C78.5807 13.3554 78.5077 13.4473 78.4968 13.4494C78.486 13.4527 78.4709 13.4689 78.4514 13.4981C78.433 13.5283 78.3183 13.6488 78.1073 13.8595C77.8963 14.0702 77.6897 14.2577 77.4873 14.422C77.2839 14.5873 77.1811 14.7904 77.1789 15.0314C77.1757 15.2713 77.1632 15.5425 77.1416 15.8451C77.1199 16.1476 77.0794 16.4745 77.0198 16.8257C76.9603 17.1768 76.8684 17.574 76.7439 18.017C76.6195 18.46 76.468 18.8922 76.2894 19.3137C76.1109 19.7351 75.9243 20.1133 75.7295 20.4482C75.5347 20.7832 75.3562 21.0669 75.1939 21.2992C75.0316 21.5315 74.8666 21.7503 74.6988 21.9556C74.5311 22.1609 74.319 22.3922 74.0626 22.6493C73.8051 22.9054 73.6644 23.0459 73.6406 23.0708C73.6157 23.0945 73.5097 23.1832 73.3225 23.3366C73.1363 23.4911 72.9362 23.6456 72.7219 23.8001C72.5088 23.9536 72.3129 24.0816 72.1344 24.1843C71.9558 24.2869 71.7405 24.4042 71.4884 24.536C71.2373 24.6689 70.9657 24.7921 70.6736 24.9056C70.3814 25.019 70.073 25.1244 69.7484 25.2216C69.4238 25.3189 69.11 25.3945 68.807 25.4485C68.5041 25.5026 68.1605 25.5485 67.7764 25.5863L67.2002 25.643V25.6511H66.1452V25.643L66.0072 25.6349C65.9152 25.6295 65.8395 25.6241 65.78 25.6187C65.7205 25.6133 65.4959 25.5836 65.1064 25.5296C64.7169 25.4756 64.4112 25.4215 64.1894 25.3675C63.9675 25.3135 63.6375 25.2108 63.1993 25.0595C62.761 24.9083 62.3861 24.7553 62.0745 24.6008C61.7639 24.4474 61.5692 24.3501 61.4902 24.3091C61.4123 24.2691 61.3246 24.2194 61.2272 24.16L61.0812 24.0708L61.0779 24.066L61.073 24.0627L61.0682 24.0595L61.0649 24.0546L61.0487 24.0465L61.0325 24.0384L61.0292 24.0335L61.0243 24.0303L61.0195 24.0271L61.0162 24.0222L61.013 24.0173L61.0081 24.0141H61V23.9817L61.0162 23.9849L61.0325 23.9898L61.1055 23.9979C61.1542 24.0033 61.2868 24.0114 61.5032 24.0222C61.7196 24.033 61.9495 24.033 62.193 24.0222C62.4364 24.0114 62.6853 23.9871 62.9396 23.9493C63.1939 23.9114 63.4941 23.8466 63.8404 23.7548C64.1867 23.6629 64.5048 23.5538 64.7948 23.4273C65.0837 23.2999 65.2893 23.2048 65.4116 23.1421C65.5327 23.0805 65.7178 22.9659 65.9666 22.7985L66.3399 22.5472L66.3432 22.5424L66.3481 22.5391L66.3529 22.5359L66.3562 22.531L66.3594 22.5262L66.3643 22.5229L66.3692 22.5197L66.3724 22.5148L66.3886 22.5099L66.4049 22.5067L66.4081 22.4905L66.413 22.4743L66.4179 22.471L66.4211 22.4662L66.2913 22.4581C66.2047 22.4527 66.1208 22.4473 66.0397 22.4419C65.9585 22.4365 65.8314 22.4122 65.6583 22.3689C65.4851 22.3257 65.2985 22.2609 65.0983 22.1744C64.8981 22.088 64.7033 21.9853 64.514 21.8665C64.3246 21.7476 64.1877 21.6487 64.1033 21.5699C64.02 21.492 63.9118 21.3818 63.7787 21.2392C63.6467 21.0955 63.532 20.948 63.4346 20.7967C63.3372 20.6454 63.2442 20.4709 63.1555 20.2732L63.0207 19.9782L63.0126 19.9539L63.0045 19.9296L62.9996 19.9134L62.9964 19.8972L63.0207 19.9004L63.0451 19.9053L63.2236 19.9296C63.3427 19.9458 63.5293 19.9512 63.7836 19.9458C64.0379 19.9404 64.2137 19.9296 64.3111 19.9134C64.4085 19.8972 64.468 19.8863 64.4896 19.8809L64.5221 19.8728L64.5627 19.8647L64.6032 19.8566L64.6065 19.8518L64.6114 19.8485L64.6162 19.8453L64.6195 19.8404L64.587 19.8323L64.5546 19.8242L64.5221 19.8161L64.4896 19.808L64.4572 19.7999C64.4355 19.7945 64.3977 19.7837 64.3436 19.7675C64.2895 19.7513 64.1434 19.6918 63.9053 19.5892C63.6673 19.4865 63.4779 19.3866 63.3372 19.2893C63.1962 19.1918 63.0618 19.0851 62.9347 18.97C62.8081 18.8533 62.6691 18.7031 62.5176 18.5194C62.3661 18.3357 62.2308 18.1223 62.1118 17.8792C61.9928 17.6361 61.9035 17.4038 61.844 17.1822C61.7847 16.962 61.7456 16.7369 61.7272 16.5096L61.6979 16.1692L61.7142 16.1725L61.7304 16.1773L61.7466 16.1854L61.7628 16.1935L61.7791 16.2016L61.7953 16.2097L62.0469 16.3232C62.2146 16.3988 62.4229 16.4637 62.6718 16.5177C62.9207 16.5717 63.0694 16.6014 63.1181 16.6068L63.1912 16.615H63.3372L63.334 16.6101L63.3291 16.6068L63.3243 16.6036L63.321 16.5987L63.3178 16.5939L63.3129 16.5906L63.308 16.5874L63.3048 16.5825L63.2885 16.5744L63.2723 16.5663L63.2691 16.5615L63.2642 16.5582L63.2593 16.555L63.2561 16.5501L63.2399 16.542L63.2236 16.5339L63.2204 16.529C63.2171 16.5269 63.1706 16.4923 63.0808 16.4253C62.9921 16.3572 62.899 16.2692 62.8016 16.1611C62.7042 16.0531 62.6069 15.9396 62.5095 15.8207C62.4119 15.7016 62.325 15.5742 62.2498 15.4398C62.174 15.3048 62.094 15.133 62.0096 14.9244C61.9262 14.7169 61.8629 14.5079 61.8197 14.2971C61.7764 14.0864 61.752 13.8784 61.7466 13.6731C61.7412 13.4678 61.7466 13.2922 61.7628 13.1464C61.7791 13.0005 61.8115 12.8357 61.8602 12.652C61.9089 12.4683 61.9793 12.2738 62.0712 12.0685L62.2092 11.7605L62.2173 11.7362L62.2254 11.7119L62.2303 11.7087L62.2335 11.7038L62.2368 11.6989L62.2417 11.6957L62.2465 11.6989L62.2498 11.7038L62.253 11.7087L62.2579 11.7119L62.2628 11.7151L62.266 11.72L62.2693 11.7249L62.2741 11.7281L62.2822 11.7443L62.2904 11.7605L62.2952 11.7638L62.2985 11.7686L62.5176 12.0118C62.6637 12.1738 62.8368 12.3548 63.037 12.5547C63.2372 12.7546 63.3481 12.8584 63.3697 12.8659C63.3914 12.8746 63.4184 12.8994 63.4509 12.9405C63.4833 12.9805 63.5915 13.0761 63.7755 13.2274C63.9594 13.3787 64.2002 13.5543 64.4977 13.7542C64.7953 13.9541 65.1253 14.1513 65.4878 14.3458C65.8503 14.5403 66.2399 14.7159 66.6564 14.8725C67.073 15.0292 67.3652 15.1319 67.5329 15.1805C67.7006 15.2291 67.9874 15.2913 68.3931 15.3669C68.7989 15.4425 69.1046 15.4912 69.3102 15.5128C69.5158 15.5344 69.6565 15.5468 69.7322 15.5501L69.8458 15.5533L69.8426 15.529L69.8377 15.5047L69.8052 15.3021C69.7836 15.167 69.7728 14.9779 69.7728 14.7348C69.7728 14.4917 69.7917 14.2674 69.8296 14.0621C69.8675 13.8568 69.9243 13.6488 70 13.4381C70.0757 13.2274 70.1499 13.0583 70.2224 12.9308C70.296 12.8044 70.3923 12.6601 70.5113 12.498C70.6303 12.3359 70.7845 12.1685 70.9739 11.9956C71.1632 11.8227 71.3796 11.6687 71.6231 11.5336C71.8665 11.3986 72.0911 11.2959 72.2967 11.2257C72.5023 11.1554 72.6754 11.1095 72.8161 11.0879C72.9567 11.0663 73.0271 11.0538 73.0271 11.0506Z" fill="#323840"/>
<rect x="104" y="0.349365" width="36" height="36" rx="8" fill="#D9CFCC"/>
<path fill-rule="evenodd" clip-rule="evenodd" d="M113 18.3494C113 14.7542 113 12.9567 113.857 11.6619C114.239 11.0838 114.734 10.5886 115.313 10.2061C116.607 9.34937 118.405 9.34937 122 9.34937C125.595 9.34937 127.393 9.34937 128.687 10.2061C129.266 10.5886 129.761 11.0838 130.143 11.6619C131 12.9567 131 14.7542 131 18.3494C131 21.9445 131 23.7421 130.143 25.0368C129.761 25.615 129.266 26.1101 128.687 26.4927C127.393 27.3494 125.595 27.3494 122 27.3494C118.405 27.3494 116.607 27.3494 115.313 26.4927C114.734 26.1101 114.239 25.615 113.857 25.0368C113 23.7421 113 21.9445 113 18.3494ZM126.659 18.3496C126.659 20.9229 124.573 23.009 122 23.009C119.427 23.009 117.34 20.9229 117.34 18.3496C117.34 15.7763 119.427 13.6902 122 13.6902C124.573 13.6902 126.659 15.7763 126.659 18.3496ZM122 21.4326C123.703 21.4326 125.083 20.0523 125.083 18.3496C125.083 16.6469 123.703 15.2666 122 15.2666C120.297 15.2666 118.917 16.6469 118.917 18.3496C118.917 20.0523 120.297 21.4326 122 21.4326ZM126.843 14.5509C127.448 14.5509 127.938 14.0607 127.938 13.4561C127.938 12.8514 127.448 12.3613 126.843 12.3613C126.239 12.3613 125.748 12.8514 125.748 13.4561C125.748 14.0607 126.239 14.5509 126.843 14.5509Z" fill="#323840"/>
<rect x="156" y="0.349365" width="36" height="36" rx="8" fill="#D9CFCC"/>
<path d="M165 11.7692C165 11.192 165.203 10.7158 165.608 10.3406C166.014 9.96542 166.541 9.77783 167.189 9.77783C167.826 9.77783 168.342 9.96252 168.736 10.3319C169.141 10.7129 169.344 11.2093 169.344 11.8211C169.344 12.3752 169.147 12.837 168.753 13.2064C168.347 13.5874 167.815 13.7778 167.154 13.7778H167.137C166.5 13.7778 165.985 13.5874 165.591 13.2064C165.197 12.8255 165 12.3464 165 11.7692ZM165.226 26.9207V15.3536H169.083V26.9207H165.226ZM171.22 26.9207H175.077V20.4618C175.077 20.0578 175.124 19.7461 175.216 19.5267C175.378 19.1342 175.625 18.8023 175.955 18.5311C176.285 18.2598 176.699 18.1241 177.197 18.1241C178.494 18.1241 179.143 18.9957 179.143 20.7389V26.9207H183V20.2887C183 18.5801 182.595 17.2843 181.784 16.4012C180.973 15.5181 179.902 15.0765 178.569 15.0765C177.075 15.0765 175.911 15.7172 175.077 16.9986V17.0332H175.06L175.077 16.9986V15.3536H171.22C171.243 15.723 171.255 16.8716 171.255 18.7995C171.255 20.7273 171.243 23.4344 171.22 26.9207Z" fill="#323840"/>
<rect x="208" y="0.349365" width="36" height="36" rx="8" fill="#D9CFCC"/>
<path d="M226.439 25.3293L222.376 25.2534C221.061 25.2269 219.743 25.2797 218.453 25.0056C216.492 24.5961 216.353 22.5882 216.207 20.904C216.007 18.5361 216.084 16.1253 216.463 13.7773C216.676 12.4597 217.516 11.6736 218.815 11.588C223.201 11.2775 227.615 11.3143 231.991 11.4592C232.453 11.4725 232.918 11.545 233.374 11.6276C235.623 12.0306 235.678 14.306 235.824 16.2214C235.969 18.1566 235.908 20.1018 235.63 22.0238C235.407 23.6152 234.98 24.9498 233.18 25.0786C230.924 25.2471 228.72 25.3827 226.458 25.3395C226.458 25.3293 226.445 25.3293 226.439 25.3293ZM224.05 21.3003C225.75 20.3029 227.418 19.3221 229.108 18.3314C227.405 17.334 225.741 16.3532 224.05 15.3625V21.3003Z" fill="#323840"/>
</svg>
