<svg width="244" height="37" viewBox="0 0 244 37" fill="none" xmlns="http://www.w3.org/2000/svg">
<rect y="0.349609" width="36" height="36" rx="8" fill="#F2B950"/>
<path d="M19.4638 27.3496V19.139H22.3585L22.7919 15.9391H19.4637V13.8961C19.4637 12.9697 19.7339 12.3384 21.1293 12.3384L22.909 12.3376V9.47568C22.6012 9.43676 21.5447 9.34961 20.3157 9.34961C17.7497 9.34961 15.9929 10.8408 15.9929 13.5793V15.9391H13.0908V19.139H15.9929V27.3495H19.4638V27.3496Z" fill="#F2F2F2"/>
<rect x="52" y="0.349609" width="36" height="36" rx="8" fill="#F2B950"/>
<path d="M73.0271 11.0508V11.0476H73.8711L74.1794 11.1092C74.385 11.1492 74.5717 11.2016 74.7394 11.2664C74.9071 11.3313 75.0694 11.4069 75.2263 11.4933C75.3832 11.5798 75.5255 11.6679 75.6532 11.7575C75.7798 11.8461 75.8934 11.9402 75.9941 12.0396C76.0936 12.1401 76.2489 12.166 76.4599 12.1174C76.6709 12.0687 76.8981 12.0012 77.1416 11.9148C77.385 11.8283 77.6258 11.7311 77.8638 11.623C78.1019 11.5149 78.2469 11.4463 78.2988 11.4172C78.3497 11.3869 78.3768 11.3707 78.38 11.3685L78.3832 11.3637L78.3995 11.3556L78.4157 11.3475L78.4319 11.3394L78.4482 11.3313L78.4514 11.3264L78.4563 11.3232L78.4612 11.3199L78.4644 11.315L78.4806 11.3102L78.4968 11.3069L78.4936 11.3313L78.4887 11.3556L78.4806 11.3799L78.4725 11.4042L78.4644 11.4204L78.4563 11.4366L78.4482 11.4609C78.4427 11.4771 78.4373 11.4987 78.4319 11.5258C78.4265 11.5528 78.3751 11.6608 78.2777 11.8499C78.1803 12.039 78.0586 12.2308 77.9125 12.4253C77.7665 12.6198 77.6355 12.7668 77.5198 12.8662C77.4029 12.9667 77.3255 13.0369 77.2876 13.0769C77.2498 13.118 77.2038 13.1558 77.1497 13.1904L77.0685 13.2438L77.0523 13.252L77.0361 13.2601L77.0328 13.2649L77.028 13.2682L77.0231 13.2714L77.0198 13.2763L77.0036 13.2844L76.9874 13.2925L76.9841 13.2973L76.9793 13.3006L76.9744 13.3038L76.9711 13.3087L76.9679 13.3135L76.963 13.3168L76.9582 13.32L76.9549 13.3249H77.0361L77.4905 13.2276C77.7935 13.1628 78.083 13.0845 78.3589 12.9926L78.7971 12.8467L78.8458 12.8305L78.8702 12.8224L78.8864 12.8143L78.9026 12.8062L78.9188 12.7981L78.9351 12.79L78.9675 12.7851L79 12.7819V12.8143L78.9919 12.8176L78.9838 12.8224L78.9805 12.8273L78.9757 12.8305L78.9708 12.8338L78.9675 12.8386L78.9643 12.8435L78.9594 12.8467L78.9546 12.85L78.9513 12.8548L78.9481 12.8597L78.9432 12.8629L78.9351 12.8792L78.927 12.8954L78.9221 12.8986C78.9199 12.9018 78.8512 12.9937 78.716 13.1742C78.5807 13.3557 78.5077 13.4475 78.4968 13.4497C78.486 13.4529 78.4709 13.4691 78.4514 13.4983C78.433 13.5286 78.3183 13.6491 78.1073 13.8598C77.8963 14.0705 77.6897 14.2579 77.4873 14.4222C77.2839 14.5875 77.1811 14.7907 77.1789 15.0316C77.1757 15.2715 77.1632 15.5428 77.1416 15.8453C77.1199 16.1479 77.0794 16.4747 77.0198 16.8259C76.9603 17.1771 76.8684 17.5742 76.7439 18.0172C76.6195 18.4602 76.468 18.8925 76.2894 19.3139C76.1109 19.7353 75.9243 20.1135 75.7295 20.4485C75.5347 20.7835 75.3562 21.0671 75.1939 21.2994C75.0316 21.5317 74.8666 21.7506 74.6988 21.9559C74.5311 22.1612 74.319 22.3924 74.0626 22.6496C73.8051 22.9057 73.6644 23.0462 73.6406 23.071C73.6157 23.0948 73.5097 23.1834 73.3225 23.3368C73.1363 23.4913 72.9362 23.6459 72.7219 23.8004C72.5088 23.9538 72.3129 24.0819 72.1344 24.1845C71.9558 24.2872 71.7405 24.4044 71.4884 24.5362C71.2373 24.6692 70.9657 24.7923 70.6736 24.9058C70.3814 25.0193 70.073 25.1246 69.7484 25.2219C69.4238 25.3191 69.11 25.3948 68.807 25.4488C68.5041 25.5028 68.1605 25.5487 67.7764 25.5865L67.2002 25.6433V25.6514H66.1452V25.6433L66.0072 25.6352C65.9152 25.6298 65.8395 25.6244 65.78 25.619C65.7205 25.6136 65.4959 25.5838 65.1064 25.5298C64.7169 25.4758 64.4112 25.4218 64.1894 25.3677C63.9675 25.3137 63.6375 25.2111 63.1993 25.0598C62.761 24.9085 62.3861 24.7556 62.0745 24.6011C61.7639 24.4476 61.5692 24.3504 61.4902 24.3093C61.4123 24.2693 61.3246 24.2196 61.2272 24.1602L61.0812 24.0711L61.0779 24.0662L61.073 24.063L61.0682 24.0597L61.0649 24.0549L61.0487 24.0468L61.0325 24.0386L61.0292 24.0338L61.0243 24.0305L61.0195 24.0273L61.0162 24.0224L61.013 24.0176L61.0081 24.0143H61V23.9819L61.0162 23.9852L61.0325 23.99L61.1055 23.9981C61.1542 24.0035 61.2868 24.0116 61.5032 24.0224C61.7196 24.0332 61.9495 24.0332 62.193 24.0224C62.4364 24.0116 62.6853 23.9873 62.9396 23.9495C63.1939 23.9117 63.4941 23.8469 63.8404 23.755C64.1867 23.6631 64.5048 23.554 64.7948 23.4276C65.0837 23.3001 65.2893 23.205 65.4116 23.1423C65.5327 23.0807 65.7178 22.9662 65.9666 22.7987L66.3399 22.5475L66.3432 22.5426L66.3481 22.5394L66.3529 22.5361L66.3562 22.5313L66.3594 22.5264L66.3643 22.5232L66.3692 22.5199L66.3724 22.5151L66.3886 22.5102L66.4049 22.507L66.4081 22.4907L66.413 22.4745L66.4179 22.4713L66.4211 22.4664L66.2913 22.4583C66.2047 22.4529 66.1208 22.4475 66.0397 22.4421C65.9585 22.4367 65.8314 22.4124 65.6583 22.3692C65.4851 22.326 65.2985 22.2611 65.0983 22.1747C64.8981 22.0882 64.7033 21.9856 64.514 21.8667C64.3246 21.7479 64.1877 21.649 64.1033 21.5701C64.02 21.4923 63.9118 21.3821 63.7787 21.2395C63.6467 21.0958 63.532 20.9482 63.4346 20.797C63.3372 20.6457 63.2442 20.4712 63.1555 20.2734L63.0207 19.9784L63.0126 19.9541L63.0045 19.9298L62.9996 19.9136L62.9964 19.8974L63.0207 19.9006L63.0451 19.9055L63.2236 19.9298C63.3427 19.946 63.5293 19.9514 63.7836 19.946C64.0379 19.9406 64.2137 19.9298 64.3111 19.9136C64.4085 19.8974 64.468 19.8866 64.4896 19.8812L64.5221 19.8731L64.5627 19.865L64.6032 19.8569L64.6065 19.852L64.6114 19.8488L64.6162 19.8455L64.6195 19.8407L64.587 19.8326L64.5546 19.8245L64.5221 19.8164L64.4896 19.8083L64.4572 19.8001C64.4355 19.7948 64.3977 19.7839 64.3436 19.7677C64.2895 19.7515 64.1434 19.6921 63.9053 19.5894C63.6673 19.4868 63.4779 19.3868 63.3372 19.2896C63.1962 19.1921 63.0618 19.0854 62.9347 18.9703C62.8081 18.8536 62.6691 18.7034 62.5176 18.5197C62.3661 18.336 62.2308 18.1226 62.1118 17.8795C61.9928 17.6363 61.9035 17.404 61.844 17.1825C61.7847 16.9623 61.7456 16.7371 61.7272 16.5098L61.6979 16.1695L61.7142 16.1727L61.7304 16.1776L61.7466 16.1857L61.7628 16.1938L61.7791 16.2019L61.7953 16.21L62.0469 16.3234C62.2146 16.3991 62.4229 16.4639 62.6718 16.5179C62.9207 16.572 63.0694 16.6017 63.1181 16.6071L63.1912 16.6152H63.3372L63.334 16.6103L63.3291 16.6071L63.3243 16.6038L63.321 16.599L63.3178 16.5941L63.3129 16.5909L63.308 16.5876L63.3048 16.5828L63.2885 16.5747L63.2723 16.5666L63.2691 16.5617L63.2642 16.5585L63.2593 16.5552L63.2561 16.5504L63.2399 16.5423L63.2236 16.5342L63.2204 16.5293C63.2171 16.5271 63.1706 16.4925 63.0808 16.4256C62.9921 16.3575 62.899 16.2694 62.8016 16.1614C62.7042 16.0533 62.6069 15.9398 62.5095 15.821C62.4119 15.7019 62.325 15.5744 62.2498 15.4401C62.174 15.305 62.094 15.1332 62.0096 14.9247C61.9262 14.7172 61.8629 14.5081 61.8197 14.2974C61.7764 14.0867 61.752 13.8787 61.7466 13.6734C61.7412 13.4681 61.7466 13.2925 61.7628 13.1466C61.7791 13.0007 61.8115 12.8359 61.8602 12.6522C61.9089 12.4685 61.9793 12.274 62.0712 12.0687L62.2092 11.7608L62.2173 11.7365L62.2254 11.7122L62.2303 11.7089L62.2335 11.704L62.2368 11.6992L62.2417 11.6959L62.2465 11.6992L62.2498 11.704L62.253 11.7089L62.2579 11.7122L62.2628 11.7154L62.266 11.7203L62.2693 11.7251L62.2741 11.7284L62.2822 11.7446L62.2904 11.7608L62.2952 11.764L62.2985 11.7689L62.5176 12.012C62.6637 12.1741 62.8368 12.3551 63.037 12.555C63.2372 12.7549 63.3481 12.8586 63.3697 12.8662C63.3914 12.8748 63.4184 12.8997 63.4509 12.9407C63.4833 12.9807 63.5915 13.0764 63.7755 13.2276C63.9594 13.3789 64.2002 13.5545 64.4977 13.7544C64.7953 13.9543 65.1253 14.1515 65.4878 14.346C65.8503 14.5405 66.2399 14.7161 66.6564 14.8728C67.073 15.0295 67.3652 15.1321 67.5329 15.1808C67.7006 15.2294 67.9874 15.2915 68.3931 15.3671C68.7989 15.4428 69.1046 15.4914 69.3102 15.513C69.5158 15.5346 69.6565 15.5471 69.7322 15.5503L69.8458 15.5535L69.8426 15.5292L69.8377 15.5049L69.8052 15.3023C69.7836 15.1673 69.7728 14.9781 69.7728 14.735C69.7728 14.4919 69.7917 14.2677 69.8296 14.0624C69.8675 13.8571 69.9243 13.6491 70 13.4383C70.0757 13.2276 70.1499 13.0585 70.2224 12.931C70.296 12.8046 70.3923 12.6603 70.5113 12.4983C70.6303 12.3362 70.7845 12.1687 70.9739 11.9958C71.1632 11.8229 71.3796 11.6689 71.6231 11.5339C71.8665 11.3988 72.0911 11.2961 72.2967 11.2259C72.5023 11.1557 72.6754 11.1097 72.8161 11.0881C72.9567 11.0665 73.0271 11.0541 73.0271 11.0508Z" fill="#F2F2F2"/>
<rect x="104" y="0.349609" width="36" height="36" rx="8" fill="#F2B950"/>
<path fill-rule="evenodd" clip-rule="evenodd" d="M113 18.3496C113 14.7545 113 12.9569 113.857 11.6622C114.239 11.084 114.734 10.5889 115.313 10.2063C116.607 9.34961 118.405 9.34961 122 9.34961C125.595 9.34961 127.393 9.34961 128.687 10.2063C129.266 10.5889 129.761 11.084 130.143 11.6622C131 12.9569 131 14.7545 131 18.3496C131 21.9447 131 23.7423 130.143 25.0371C129.761 25.6152 129.266 26.1104 128.687 26.4929C127.393 27.3496 125.595 27.3496 122 27.3496C118.405 27.3496 116.607 27.3496 115.313 26.4929C114.734 26.1104 114.239 25.6152 113.857 25.0371C113 23.7423 113 21.9447 113 18.3496ZM126.659 18.3498C126.659 20.9232 124.573 23.0092 122 23.0092C119.427 23.0092 117.34 20.9232 117.34 18.3498C117.34 15.7765 119.427 13.6904 122 13.6904C124.573 13.6904 126.659 15.7765 126.659 18.3498ZM122 21.4328C123.703 21.4328 125.083 20.0525 125.083 18.3498C125.083 16.6471 123.703 15.2668 122 15.2668C120.297 15.2668 118.917 16.6471 118.917 18.3498C118.917 20.0525 120.297 21.4328 122 21.4328ZM126.843 14.5512C127.448 14.5512 127.938 14.061 127.938 13.4563C127.938 12.8517 127.448 12.3615 126.843 12.3615C126.239 12.3615 125.748 12.8517 125.748 13.4563C125.748 14.061 126.239 14.5512 126.843 14.5512Z" fill="#F2F2F2"/>
<rect x="156" y="0.349609" width="36" height="36" rx="8" fill="#F2B950"/>
<path d="M165 11.7694C165 11.1922 165.203 10.716 165.608 10.3408C166.014 9.96566 166.541 9.77808 167.189 9.77808C167.826 9.77808 168.342 9.96277 168.736 10.3322C169.141 10.7131 169.344 11.2095 169.344 11.8214C169.344 12.3755 169.147 12.8372 168.753 13.2066C168.347 13.5876 167.815 13.7781 167.154 13.7781H167.137C166.5 13.7781 165.985 13.5876 165.591 13.2066C165.197 12.8257 165 12.3466 165 11.7694ZM165.226 26.9209V15.3538H169.083V26.9209H165.226ZM171.22 26.9209H175.077V20.4621C175.077 20.058 175.124 19.7463 175.216 19.527C175.378 19.1345 175.625 18.8026 175.955 18.5313C176.285 18.26 176.699 18.1244 177.197 18.1244C178.494 18.1244 179.143 18.996 179.143 20.7391V26.9209H183V20.2889C183 18.5804 182.595 17.2846 181.784 16.4015C180.973 15.5183 179.902 15.0768 178.569 15.0768C177.075 15.0768 175.911 15.7175 175.077 16.9989V17.0335H175.06L175.077 16.9989V15.3538H171.22C171.243 15.7232 171.255 16.8719 171.255 18.7997C171.255 20.7276 171.243 23.4346 171.22 26.9209Z" fill="#F2F2F2"/>
<rect x="208" y="0.349609" width="36" height="36" rx="8" fill="#F2B950"/>
<path d="M226.439 25.3295L222.376 25.2536C221.061 25.2272 219.743 25.28 218.453 25.0059C216.492 24.5964 216.353 22.5885 216.207 20.9042C216.007 18.5364 216.084 16.1256 216.463 13.7775C216.676 12.46 217.516 11.6738 218.815 11.5883C223.201 11.2778 227.615 11.3146 231.991 11.4594C232.453 11.4727 232.918 11.5453 233.374 11.6279C235.623 12.0308 235.678 14.3062 235.824 16.2217C235.969 18.1569 235.908 20.102 235.63 22.0241C235.407 23.6155 234.98 24.95 233.18 25.0789C230.924 25.2473 228.72 25.383 226.458 25.3398C226.458 25.3295 226.445 25.3295 226.439 25.3295ZM224.05 21.3006C225.75 20.3031 227.418 19.3224 229.108 18.3316C227.405 17.3342 225.741 16.3534 224.05 15.3627V21.3006Z" fill="#F2F2F2"/>
</svg>
